<svg preserveAspectRatio="none" width="100%" height="100%" overflow="visible" style="display: block;" viewBox="0 0 141.075 20" fill="none" xmlns="http://www.w3.org/2000/svg">
<g id="Varo.cloud">
<path id="Vector" d="M132.663 19.9519C131.541 19.9519 130.524 19.6631 129.612 19.0857C128.708 18.5018 127.989 17.6452 127.457 16.5159C126.93 15.3802 126.667 13.9878 126.667 12.3388C126.667 10.6448 126.94 9.23644 127.485 8.11357C128.031 6.98428 128.756 6.14052 129.661 5.58229C130.572 5.01764 131.569 4.73532 132.654 4.73532C133.482 4.73532 134.171 4.87648 134.723 5.15881C135.281 5.43471 135.731 5.7812 136.071 6.19827C136.417 6.60892 136.68 7.01315 136.86 7.41097H136.985V0H141.075V19.7113H137.033V17.3436H136.86C136.667 17.7542 136.395 18.1617 136.042 18.5659C135.695 18.9637 135.243 19.2942 134.685 19.5573C134.133 19.8203 133.459 19.9519 132.663 19.9519ZM133.963 16.6891C134.624 16.6891 135.182 16.5095 135.637 16.1501C136.099 15.7844 136.452 15.2743 136.696 14.6198C136.946 13.9653 137.072 13.1986 137.072 12.3195C137.072 11.4405 136.95 10.6769 136.706 10.0289C136.462 9.38081 136.109 8.88033 135.647 8.52743C135.185 8.17453 134.624 7.99807 133.963 7.99807C133.289 7.99807 132.721 8.18094 132.259 8.54668C131.797 8.91242 131.448 9.41931 131.21 10.0674C130.973 10.7154 130.854 11.4662 130.854 12.3195C130.854 13.1793 130.973 13.9397 131.21 14.6006C131.454 15.2551 131.804 15.7684 132.259 16.1405C132.721 16.5063 133.289 16.6891 133.963 16.6891Z" fill="var(--fill-0, #06B6D4)"/>
<path id="Vector_2" d="M119.837 13.4167V4.92781H123.937V19.7113H120V17.026H119.846C119.513 17.8922 118.958 18.5884 118.181 19.1145C117.411 19.6407 116.471 19.9038 115.361 19.9038C114.373 19.9038 113.504 19.6792 112.753 19.23C112.002 18.7809 111.415 18.1424 110.992 17.3147C110.574 16.487 110.363 15.4957 110.356 14.3407V4.92781H114.456V13.6092C114.463 14.4819 114.697 15.1716 115.159 15.6785C115.621 16.1854 116.24 16.4389 117.017 16.4389C117.511 16.4389 117.973 16.3266 118.403 16.102C118.832 15.871 119.179 15.531 119.442 15.0818C119.711 14.6327 119.843 14.0776 119.837 13.4167Z" fill="var(--fill-0, #06B6D4)"/>
<path id="Vector_3" d="M100.413 20C98.9183 20 97.6254 19.6824 96.5346 19.0472C95.4502 18.4055 94.6129 17.5136 94.0226 16.3715C93.4323 15.223 93.1371 13.8916 93.1371 12.3773C93.1371 10.8502 93.4323 9.51556 94.0226 8.37344C94.6129 7.2249 95.4502 6.33301 96.5346 5.69779C97.6254 5.05614 98.9183 4.73532 100.413 4.73532C101.908 4.73532 103.198 5.05614 104.282 5.69779C105.373 6.33301 106.214 7.2249 106.804 8.37344C107.394 9.51556 107.69 10.8502 107.69 12.3773C107.69 13.8916 107.394 15.223 106.804 16.3715C106.214 17.5136 105.373 18.4055 104.282 19.0472C103.198 19.6824 101.908 20 100.413 20ZM100.433 16.8239C101.113 16.8239 101.681 16.6314 102.136 16.2464C102.592 15.855 102.935 15.3224 103.166 14.6487C103.403 13.975 103.522 13.2082 103.522 12.3484C103.522 11.4886 103.403 10.7218 103.166 10.0481C102.935 9.3744 102.592 8.84184 102.136 8.45043C101.681 8.05903 101.113 7.86333 100.433 7.86333C99.746 7.86333 99.1685 8.05903 98.7001 8.45043C98.2382 8.84184 97.8885 9.3744 97.6511 10.0481C97.4201 10.7218 97.3046 11.4886 97.3046 12.3484C97.3046 13.2082 97.4201 13.975 97.6511 14.6487C97.8885 15.3224 98.2382 15.855 98.7001 16.2464C99.1685 16.6314 99.746 16.8239 100.433 16.8239Z" fill="var(--fill-0, #06B6D4)"/>
<path id="Vector_4" d="M90.4493 0V19.7113H86.3492V0H90.4493Z" fill="var(--fill-0, #06B6D4)"/>
<path id="Vector_5" d="M77.1215 20C75.6072 20 74.3047 19.6792 73.2139 19.0375C72.1295 18.3895 71.2954 17.4912 70.7115 16.3426C70.134 15.1941 69.8453 13.8723 69.8453 12.3773C69.8453 10.863 70.1372 9.53481 70.7211 8.39269C71.3115 7.24415 72.1488 6.34905 73.2332 5.70741C74.3175 5.05935 75.6072 4.73532 77.1023 4.73532C78.392 4.73532 79.5213 4.96952 80.4901 5.43792C81.459 5.90632 82.2258 6.564 82.7904 7.41097C83.3551 8.25794 83.6663 9.25249 83.724 10.3946H79.8549C79.7458 9.65672 79.4571 9.0632 78.9887 8.61405C78.5267 8.15849 77.9204 7.9307 77.1696 7.9307C76.5344 7.9307 75.9794 8.10395 75.5046 8.45043C75.0362 8.7905 74.6704 9.28778 74.4074 9.94225C74.1443 10.5967 74.0128 11.3892 74.0128 12.3195C74.0128 13.2628 74.1411 14.0648 74.3978 14.7257C74.6608 15.3866 75.0298 15.8903 75.5046 16.2368C75.9794 16.5833 76.5344 16.7565 77.1696 16.7565C77.638 16.7565 78.0583 16.6602 78.4305 16.4678C78.809 16.2753 79.1202 15.9961 79.3641 15.6304C79.6143 15.2583 79.7779 14.8123 79.8549 14.2926H83.724C83.6599 15.4219 83.3519 16.4164 82.8001 17.2762C82.2547 18.1296 81.5007 18.7969 80.5383 19.2782C79.5758 19.7594 78.4369 20 77.1215 20Z" fill="var(--fill-0, #06B6D4)"/>
<path id="Vector_6" d="M64.7659 19.9615C64.1307 19.9615 63.5853 19.7369 63.1297 19.2878C62.6806 18.8322 62.456 18.2868 62.456 17.6516C62.456 17.0228 62.6806 16.4838 63.1297 16.0346C63.5853 15.5855 64.1307 15.3609 64.7659 15.3609C65.3819 15.3609 65.9208 15.5855 66.3828 16.0346C66.8448 16.4838 67.0758 17.0228 67.0758 17.6516C67.0758 18.0751 66.9667 18.4633 66.7486 18.8162C66.5368 19.1627 66.2577 19.4418 65.9112 19.6535C65.5647 19.8588 65.183 19.9615 64.7659 19.9615Z" fill="var(--fill-0, #06B6D4)"/>
<path id="Vector_7" d="M52.4275 20C50.9325 20 49.6396 19.6824 48.5488 19.0472C47.4644 18.4055 46.6271 17.5136 46.0368 16.3715C45.4465 15.223 45.1513 13.8916 45.1513 12.3773C45.1513 10.8502 45.4465 9.51556 46.0368 8.37344C46.6271 7.2249 47.4644 6.33301 48.5488 5.69779C49.6396 5.05614 50.9325 4.73532 52.4275 4.73532C53.9226 4.73532 55.2123 5.05614 56.2966 5.69779C57.3874 6.33301 58.228 7.2249 58.8183 8.37344C59.4086 9.51556 59.7038 10.8502 59.7038 12.3773C59.7038 13.8916 59.4086 15.223 58.8183 16.3715C58.228 17.5136 57.3874 18.4055 56.2966 19.0472C55.2123 19.6824 53.9226 20 52.4275 20ZM52.4468 16.8239C53.1269 16.8239 53.6948 16.6314 54.1503 16.2464C54.6059 15.855 54.9492 15.3224 55.1802 14.6487C55.4176 13.975 55.5363 13.2082 55.5363 12.3484C55.5363 11.4886 55.4176 10.7218 55.1802 10.0481C54.9492 9.3744 54.6059 8.84184 54.1503 8.45043C53.6948 8.05903 53.1269 7.86333 52.4468 7.86333C51.7602 7.86333 51.1827 8.05903 50.7144 8.45043C50.2524 8.84184 49.9027 9.3744 49.6653 10.0481C49.4343 10.7218 49.3188 11.4886 49.3188 12.3484C49.3188 13.2082 49.4343 13.975 49.6653 14.6487C49.9027 15.3224 50.2524 15.855 50.7144 16.2464C51.1827 16.6314 51.7602 16.8239 52.4468 16.8239Z" fill="var(--fill-0, white)"/>
<path id="Vector_8" d="M35.3466 19.7113V4.92781H39.3216V7.50722H39.4756C39.7451 6.58967 40.1975 5.89669 40.8327 5.4283C41.4679 4.95348 42.1994 4.71607 43.0271 4.71607C43.2324 4.71607 43.4538 4.72891 43.6912 4.75457C43.9286 4.78024 44.1371 4.81553 44.3168 4.86044V8.49856C44.1243 8.44081 43.858 8.38948 43.518 8.34456C43.1779 8.29965 42.8667 8.27719 42.5844 8.27719C41.9812 8.27719 41.4422 8.40872 40.9674 8.6718C40.499 8.92846 40.1269 9.28778 39.851 9.74976C39.5815 10.2117 39.4467 10.7443 39.4467 11.3474V19.7113H35.3466Z" fill="var(--fill-0, white)"/>
<path id="Vector_9" d="M23.84 19.9904C22.8968 19.9904 22.0563 19.8268 21.3184 19.4995C20.5805 19.1659 19.9966 18.675 19.5667 18.0269C19.1432 17.3725 18.9315 16.5576 18.9315 15.5823C18.9315 14.761 19.0822 14.0712 19.3838 13.513C19.6854 12.9548 20.096 12.5056 20.6158 12.1655C21.1355 11.8255 21.7258 11.5688 22.3867 11.3956C23.054 11.2223 23.7534 11.1004 24.4849 11.0298C25.3447 10.94 26.0376 10.8566 26.5638 10.7796C27.0899 10.6962 27.4717 10.5743 27.7091 10.4139C27.9465 10.2534 28.0652 10.016 28.0652 9.70164V9.64389C28.0652 9.03433 27.8727 8.56272 27.4878 8.22907C27.1092 7.89541 26.5702 7.72859 25.8708 7.72859C25.1329 7.72859 24.5458 7.8922 24.1095 8.21944C23.6732 8.54026 23.3845 8.9445 23.2433 9.43215L19.4512 9.12416C19.6437 8.22586 20.0222 7.44947 20.5869 6.795C21.1515 6.1341 21.8798 5.62721 22.7717 5.2743C23.67 4.91498 24.7094 4.73532 25.8901 4.73532C26.7114 4.73532 27.4974 4.83157 28.2481 5.02406C29.0052 5.21656 29.6758 5.51492 30.2596 5.91915C30.85 6.32339 31.3151 6.84312 31.6552 7.47835C31.9953 8.10715 32.1653 8.86108 32.1653 9.74013V19.7113H28.277V17.6612H28.1615C27.9241 18.1232 27.6065 18.5306 27.2086 18.8835C26.8108 19.23 26.3328 19.5027 25.7746 19.7016C25.2163 19.8941 24.5715 19.9904 23.84 19.9904ZM25.0142 17.1607C25.6174 17.1607 26.1499 17.042 26.6119 16.8046C27.0739 16.5608 27.4364 16.2336 27.6995 15.8229C27.9626 15.4123 28.0941 14.9471 28.0941 14.4273V12.8585C27.9658 12.9419 27.7893 13.0189 27.5648 13.0895C27.3466 13.1537 27.0996 13.2146 26.8237 13.2724C26.5477 13.3237 26.2718 13.3718 25.9959 13.4167C25.72 13.4552 25.4698 13.4905 25.2452 13.5226C24.764 13.5932 24.3437 13.7055 23.9844 13.8595C23.6251 14.0135 23.346 14.222 23.147 14.4851C22.9481 14.7417 22.8487 15.0626 22.8487 15.4475C22.8487 16.0058 23.0508 16.4325 23.455 16.7276C23.8657 17.0164 24.3854 17.1607 25.0142 17.1607Z" fill="var(--fill-0, white)"/>
<path id="Vector_10" d="M4.62945 0L9.39364 14.9759H9.57651L14.3503 0H18.9702L12.1752 19.7113H6.80462L0 0H4.62945Z" fill="var(--fill-0, white)"/>
</g>
</svg>
