<svg xmlns="http://www.w3.org/2000/svg" viewBox="0 0 46.4004 40" fill="none">
<g>
<path d="M1.95019 16.25C1.95019 6.25 11.3252 0 23.2002 0C35.0752 0 44.4502 6.25 44.4502 16.25C44.4502 28.75 35.0752 40 23.2002 40C11.3252 40 1.95019 28.75 1.95019 16.25Z" fill="url(#paint0_radial_0_15)"/>
<path d="M4.45019 15C6.86644 15 8.82519 13.3211 8.82519 11.25C8.82519 9.17893 6.86644 7.5 4.45019 7.5C2.03394 7.5 0.0751899 9.17893 0.0751899 11.25C0.0751899 13.3211 2.03394 15 4.45019 15Z" fill="#6F5238"/>
<path d="M41.9502 15C44.3664 15 46.3252 13.3211 46.3252 11.25C46.3252 9.17893 44.3664 7.5 41.9502 7.5C39.5339 7.5 37.5752 9.17893 37.5752 11.25C37.5752 13.3211 39.5339 15 41.9502 15Z" fill="#6F5238"/>
<path d="M15.7002 38.75C20.8779 38.75 25.0752 34.8325 25.0752 30C25.0752 25.1675 20.8779 21.25 15.7002 21.25C10.5225 21.25 6.32519 25.1675 6.32519 30C6.32519 34.8325 10.5225 38.75 15.7002 38.75Z" fill="#EAD9C2"/>
<path d="M30.7002 38.75C35.8779 38.75 40.0752 34.8325 40.0752 30C40.0752 25.1675 35.8779 21.25 30.7002 21.25C25.5225 21.25 21.3252 25.1675 21.3252 30C21.3252 34.8325 25.5225 38.75 30.7002 38.75Z" fill="#EAD9C2"/>
<path d="M16.3252 20.9375C18.2237 20.9375 19.7627 19.3985 19.7627 17.5C19.7627 15.6015 18.2237 14.0625 16.3252 14.0625C14.4267 14.0625 12.8877 15.6015 12.8877 17.5C12.8877 19.3985 14.4267 20.9375 16.3252 20.9375Z" fill="#1C140C"/>
<path d="M30.0752 20.9375C31.9737 20.9375 33.5127 19.3985 33.5127 17.5C33.5127 15.6015 31.9737 14.0625 30.0752 14.0625C28.1767 14.0625 26.6377 15.6015 26.6377 17.5C26.6377 19.3985 28.1767 20.9375 30.0752 20.9375Z" fill="#1C140C"/>
<path d="M17.5754 17.4373C18.2312 17.4373 18.7629 16.9056 18.7629 16.2498C18.7629 15.5939 18.2312 15.0623 17.5754 15.0623C16.9195 15.0623 16.3879 15.5939 16.3879 16.2498C16.3879 16.9056 16.9195 17.4373 17.5754 17.4373Z" fill="white"/>
<path d="M31.3254 17.4373C31.9812 17.4373 32.5129 16.9056 32.5129 16.2498C32.5129 15.5939 31.9812 15.0623 31.3254 15.0623C30.6695 15.0623 30.1379 15.5939 30.1379 16.2498C30.1379 16.9056 30.6695 17.4373 31.3254 17.4373Z" fill="white"/>
<path d="M18.8253 25H27.5753C27.679 25.2915 27.7088 25.6042 27.6623 25.9101C27.6158 26.216 27.4943 26.5056 27.3086 26.7531C27.123 27.0007 26.879 27.1984 26.5983 27.3287C26.3177 27.459 26.0092 27.5179 25.7003 27.5H20.7003C20.3914 27.5179 20.0829 27.459 19.8023 27.3287C19.5216 27.1984 19.2776 27.0007 19.092 26.7531C18.9063 26.5056 18.7848 26.216 18.7383 25.9101C18.6917 25.6042 18.7216 25.2915 18.8253 25Z" fill="#1C140C"/>
<path d="M23.2002 27.5V30.625M23.2002 30.625C21.3252 33.125 18.2002 33.125 16.3252 31.25M23.2002 30.625C25.0752 33.125 28.2002 33.125 30.0752 31.25" stroke="#1C140C" stroke-width="2.2" stroke-linecap="round"/>
<g opacity="0.5">
<path d="M10.7002 29.375C11.0454 29.375 11.3252 29.0952 11.3252 28.75C11.3252 28.4048 11.0454 28.125 10.7002 28.125C10.355 28.125 10.0752 28.4048 10.0752 28.75C10.0752 29.0952 10.355 29.375 10.7002 29.375Z" fill="#1C140C"/>
<path d="M10.7002 32.5C11.0454 32.5 11.3252 32.2202 11.3252 31.875C11.3252 31.5298 11.0454 31.25 10.7002 31.25C10.355 31.25 10.0752 31.5298 10.0752 31.875C10.0752 32.2202 10.355 32.5 10.7002 32.5Z" fill="#1C140C"/>
<path d="M35.7002 29.375C36.0454 29.375 36.3252 29.0952 36.3252 28.75C36.3252 28.4048 36.0454 28.125 35.7002 28.125C35.355 28.125 35.0752 28.4048 35.0752 28.75C35.0752 29.0952 35.355 29.375 35.7002 29.375Z" fill="#1C140C"/>
<path d="M35.7002 32.5C36.0454 32.5 36.3252 32.2202 36.3252 31.875C36.3252 31.5298 36.0454 31.25 35.7002 31.25C35.355 31.25 35.0752 31.5298 35.0752 31.875C35.0752 32.2202 35.355 32.5 35.7002 32.5Z" fill="#1C140C"/>
</g>
<g opacity="0.6">
<path d="M8.20019 28.75L0.70019 26.25M8.20019 31.875H0.70019M38.2002 28.75L45.7002 26.25M38.2002 31.875H45.7002" stroke="#6F5238" stroke-width="1.4" stroke-linecap="round"/>
</g>
</g>
<defs>
<radialGradient id="paint0_radial_0_15" cx="0" cy="0" r="1" gradientUnits="userSpaceOnUse" gradientTransform="translate(23.2002 14) scale(34 32)">
<stop stop-color="#C9A87E"/>
<stop offset="1" stop-color="#8B6B4A"/>
</radialGradient>
</defs>
</svg>
