<svg preserveAspectRatio="none" width="100%" height="100%" overflow="visible" style="display: block;" viewBox="0 0 150 44" fill="none" xmlns="http://www.w3.org/2000/svg">
<g id="Group 1912056484" opacity="0.5">
<rect id="Rectangle 34627688" width="150" height="44" rx="8" fill="var(--fill-0, white)"/>
<g id="Top Up - WaveSpeedAI 1" clip-path="url(#clip0_0_202)">
<path id="Vector" d="M42.5123 25.1319C42.3942 25.1929 42.2613 25.2282 42.1201 25.2282C41.793 25.2282 41.5088 25.0441 41.3595 24.7715L41.3024 24.6435L38.9215 19.2948C38.8958 19.2367 38.8799 19.1709 38.8799 19.1068C38.8799 18.8603 39.0751 18.6606 39.3159 18.6606C39.4136 18.6606 39.504 18.6938 39.5767 18.7491L42.3864 20.7971C42.5916 20.9344 42.8368 21.015 43.1005 21.015C43.2579 21.015 43.4078 20.985 43.5478 20.9329L56.7605 14.9128C54.392 12.0554 50.4916 10.1878 46.0777 10.1878C38.8548 10.1878 33 15.1829 33 21.345C33 24.7066 34.7615 27.7327 37.5187 29.7783C37.7399 29.9398 37.8847 30.2055 37.8847 30.5053C37.8847 30.6044 37.864 30.6949 37.8386 30.7894C37.6184 31.6303 37.266 32.9771 37.2496 33.0401C37.2221 33.1456 37.1792 33.256 37.1792 33.3664C37.1792 33.6129 37.3742 33.8125 37.6154 33.8125C37.7099 33.8125 37.7872 33.7765 37.8671 33.7296L40.7301 32.0372C40.9455 31.9102 41.1734 31.8312 41.4248 31.8312C41.5584 31.8312 41.6875 31.8524 41.8089 31.8903C43.1446 32.2837 44.5856 32.5022 46.0778 32.5022C53.3003 32.5022 59.1559 27.5069 59.1559 21.345C59.1559 19.4786 58.6157 17.7209 57.6661 16.1746L42.6081 25.0753L42.5123 25.1319Z" fill="var(--fill-0, #1AAD19)"/>
<path id="Vector_2" d="M113.247 10.1875C115.32 10.1875 117 11.8802 116.998 13.9712V26.222C116.998 26.222 116.229 26.1581 112.859 25.0223C111.924 24.706 110.665 24.2222 109.264 23.7111C110.105 22.2351 110.778 20.5546 111.22 18.729H106.602V17.0525H112.258V16.1155H106.602V13.3188H104.294C103.895 13.3188 103.889 13.7095 103.889 13.7212V16.1143H98.1681V17.0499H103.889V18.7277H99.164V19.6634H108.326C107.992 20.8274 107.54 21.9229 107.007 22.9164C104.035 21.9273 100.861 21.1258 98.8693 21.6193C97.5948 21.9358 96.7741 22.5003 96.2918 23.0933C94.0788 25.8086 95.6658 29.9326 100.339 29.9326C103.103 29.9325 105.765 28.3797 107.827 25.8196C110.906 27.311 116.998 29.8737 116.998 29.8737V30.0288C116.998 32.1177 115.32 33.8125 113.247 33.8125H97.3248C95.2515 33.8124 93.572 32.1175 93.5719 30.0288V13.9712C93.5721 11.8824 95.2515 10.1876 97.3248 10.1875H113.247ZM99.2654 23.0228C101.43 22.8082 103.435 23.6392 105.801 24.8031C104.139 26.9895 102.02 28.3562 99.9023 28.3562C96.2582 28.3558 95.1814 25.4608 96.9825 23.8765C97.5844 23.3412 98.6812 23.0804 99.2654 23.0228Z" fill="var(--fill-0, #1677FF)"/>
<path id="Vector_3" d="M75.6562 11.5V32.5" stroke="var(--stroke-0, #E9E9E9)" stroke-width="1.3125"/>
</g>
</g>
<defs>
<clipPath id="clip0_0_202">
<rect width="84" height="24" fill="white" transform="translate(33 10)"/>
</clipPath>
</defs>
</svg>
