<svg width="156" height="56" viewBox="0 0 156 56" fill="none" xmlns="http://www.w3.org/2000/svg">
<rect width="156" height="56" fill="white"/>
<path d="M141.882 20.8243L141.912 20.7913H137.17L134.175 31.1712H134.016L130.578 20.7913H124.943L131.723 37.9213L128.891 43.1428V43.2687H133.315L141.882 20.8243Z" fill="black"/>
<path d="M89.3138 20.7913H84.2842V37.8584H89.3138V20.7913Z" fill="black"/>
<path d="M123.955 33.5899V26.4592C123.955 22.5746 121.662 20.4404 117.619 20.4404C115.038 20.4404 113.257 20.887 110.008 21.8732L110.898 25.7907C113.86 24.4539 115.164 23.8814 116.533 23.8814C118.188 23.8814 118.922 25.0594 118.922 26.8758V27.0017C113.158 28.0837 111.375 28.6892 110.263 29.8042C109.436 30.6315 109.085 31.8095 109.085 33.1793C109.085 36.4584 111.633 38.2089 114.019 38.2089C115.802 38.2089 117.235 37.5405 119.177 36.0747L119.528 37.8582H124.557L123.955 33.5899ZM118.925 33.7188C117.589 34.4502 116.824 34.7379 115.934 34.7379C114.723 34.7379 113.959 33.9406 113.959 32.6697C113.959 32.1931 114.055 31.7136 114.435 31.3329C115.041 30.7274 116.219 30.2808 118.925 29.6454V33.7188Z" fill="black"/>
<path d="M101.828 20.4404C99.9815 20.4404 98.5487 21.1418 96.9241 22.4786V20.7911H91.8945V43.2685H96.9241V37.6963C97.8803 37.9511 98.7705 38.08 99.8526 38.08C104.343 38.08 108.386 34.7679 108.386 28.878C108.386 23.5937 105.458 20.4404 101.828 20.4404ZM98.6416 34.9267C98.0691 34.9267 97.5266 34.8638 96.9211 34.672V25.4401C97.9732 24.7087 98.8305 24.358 99.9125 24.358C101.792 24.358 103.288 25.8537 103.288 29.0399C103.291 33.1133 101.093 34.9267 98.6416 34.9267Z" fill="black"/>
<path d="M41.6497 12H20.0836C17.275 12 15 14.296 15 17.1255V38.8745C15 41.704 17.275 44 20.0836 44H41.6497C44.4582 44 46.7302 41.704 46.7302 38.8745V17.1255C46.7332 14.293 44.4582 12 41.6497 12Z" fill="#1677FF"/>
<path d="M41.1251 32.0945C39.8572 31.6658 38.1517 31.0094 36.2544 30.317C37.3934 28.3178 38.3046 26.0428 38.9041 23.5699H32.6485V21.2979H40.3098V20.03H32.6485V16.2413H29.5223C28.9738 16.2413 28.9738 16.7869 28.9738 16.7869V20.027H21.2255V21.2949H28.9738V23.5669H22.5744V24.8348H34.9835C34.5309 26.4114 33.9194 27.8951 33.1971 29.241C29.1716 27.9011 24.8733 26.8161 22.1757 27.4845C20.4492 27.9131 19.3372 28.6775 18.6838 29.4808C15.6864 33.1585 17.8355 38.7456 24.166 38.7456C27.9097 38.7456 31.5155 36.6415 34.3091 33.1735C38.4784 35.1938 46.7302 38.6647 46.7302 38.6647V33.719C46.7332 33.719 45.6961 33.6351 41.1251 32.0945ZM23.5755 36.6085C18.6388 36.6085 17.1791 32.6879 19.6189 30.5418C20.4342 29.8165 21.9209 29.4628 22.7122 29.3848C25.6437 29.0941 28.3593 30.2211 31.5635 31.7977C29.3125 34.7591 26.444 36.6085 23.5755 36.6085Z" fill="white"/>
<path d="M66.9957 15.4111H60.2456L52.7012 37.8585H57.3501L58.624 33.4643H66.615L67.8259 37.8585H73.7787L66.9957 15.4111ZM59.6731 29.8015L62.6644 19.4546H62.7903L65.6229 29.8015H59.6731Z" fill="black"/>
<path d="M80.8441 14.6136H75.8145V37.8552H80.8441V14.6136Z" fill="black"/>
<path d="M83.9004 16.6851C83.9004 18.3397 85.1113 19.4547 86.7988 19.4547C88.4864 19.4547 89.6973 18.3397 89.6973 16.6851C89.6973 15.0605 88.4864 13.9155 86.7988 13.9155C85.1113 13.9155 83.9004 15.0605 83.9004 16.6851Z" fill="#1677FF"/>
</svg>
