<svg width="156" height="56" viewBox="0 0 156 56" fill="none" xmlns="http://www.w3.org/2000/svg">
<rect width="156" height="56" fill="white"/>
<circle cx="90" cy="28" r="16" fill="#6481E7"/>
<path fill-rule="evenodd" clip-rule="evenodd" d="M90.1875 16.7421V32.8937L97.3645 28.651L90.1875 16.7421Z" fill="#C1CCF5"/>
<path fill-rule="evenodd" clip-rule="evenodd" d="M83.0098 28.651L90.1868 32.8937V16.7421L83.0098 28.651Z" fill="white"/>
<path fill-rule="evenodd" clip-rule="evenodd" d="M90.1873 25.389L83.0098 28.6508L90.1868 32.8936L97.3643 28.6513L90.1873 25.389Z" fill="#8299EC"/>
<path fill-rule="evenodd" clip-rule="evenodd" d="M90.1875 34.2526V40.1267L97.3693 30.0121L90.1875 34.2526Z" fill="#C1CCF5"/>
<path fill-rule="evenodd" clip-rule="evenodd" d="M90.1873 25.389L83.0098 28.6508L90.1868 32.8936L90.1873 25.389Z" fill="#C1CCF5"/>
<path fill-rule="evenodd" clip-rule="evenodd" d="M83.0098 30.0121L90.1868 40.1262V34.2525L83.0098 30.0121Z" fill="white"/>
<path d="M65.999 12C74.835 12 81.9978 19.1627 81.998 27.999C81.998 36.8355 74.8351 43.999 65.999 43.999C57.163 43.999 50 36.8355 50 27.999C50.0002 19.1627 57.1631 12.0001 65.999 12ZM64.9102 20.8281L61.3545 19.9512L60.8857 21.8271C60.909 21.8324 62.1832 22.1228 62.166 22.1436C62.8799 22.3216 63.0093 22.7919 62.9873 23.165L61.0088 31.0693C60.9213 31.2844 60.6991 31.6084 60.2002 31.4854C60.2183 31.5104 58.9189 31.167 58.9189 31.167L58.043 33.1777L61.5938 34.0703L60.8643 36.9883L62.625 37.4268L63.3477 34.5391C63.8285 34.6681 64.2961 34.7893 64.7529 34.9023L64.0332 37.7754L65.7959 38.2139L66.5254 35.3018C69.5322 35.868 71.793 35.6396 72.7441 32.9307C73.245 31.0483 72.7057 29.4912 71.124 28.6709C72.2769 28.4068 73.1449 27.6531 73.377 26.0938C73.6963 23.964 72.0683 22.819 69.8428 22.0547L70.5654 19.1689L68.8027 18.7305L68.0996 21.541C67.6368 21.426 67.1604 21.317 66.6865 21.21L67.3945 18.3818L65.6328 17.9434L64.9102 20.8281ZM64.8906 28.5605C66.086 28.8577 69.9179 29.4461 69.3486 31.7207C68.8029 33.9009 65.1169 32.7219 63.9219 32.4258L64.8906 28.5605ZM66.2109 23.2842C67.2062 23.5323 70.4106 23.9938 69.8936 26.0625C69.396 28.0445 66.3282 27.0371 65.333 26.791L66.2109 23.2842Z" fill="#F7931A"/>
</svg>
