<svg preserveAspectRatio="none" width="100%" height="100%" overflow="visible" style="display: block;" viewBox="0 0 75.9604 24.0001" fill="none" xmlns="http://www.w3.org/2000/svg">
<g id="Group">
<path id="Vector" d="M75.9604 4.77316L68.2444 22.1132H64.6712L67.1404 16.6172L61.2092 4.77316H64.8904L68.8324 12.8732L72.3964 4.77316H75.9604ZM59.4604 18.0932H56.0404V17.1361C54.9392 17.9711 53.5911 18.4136 52.2092 18.3932C48.4384 18.3932 45.4803 15.3332 45.4803 11.4332C45.4803 7.53316 48.4384 4.47317 52.2092 4.47317C53.5911 4.4528 54.9392 4.89528 56.0404 5.73016V4.77316H59.4604V18.0932ZM52.6832 7.35316C50.5292 7.35316 48.9032 9.10816 48.9032 11.4332C48.9032 13.7581 50.5292 15.5132 52.6832 15.5132C54.8372 15.5132 56.4632 13.7581 56.4632 11.4332C56.4632 9.10816 54.8372 7.35316 52.6832 7.35316ZM29.6403 4.77316H33.0603V5.73016C34.1626 4.89569 35.512 4.45328 36.8943 4.47317C40.6654 4.47317 43.6204 7.53016 43.6204 11.4332C43.6204 15.3361 40.6654 18.3932 36.8943 18.3932C35.5627 18.4132 34.26 18.0028 33.1803 17.2232V22.1132H29.6403V4.77316ZM32.6403 11.4332C32.6403 13.7581 34.2664 15.5132 36.4204 15.5132C38.5744 15.5132 40.2003 13.7581 40.2003 11.4332C40.2003 9.10816 38.5744 7.35316 36.4204 7.35316C34.2664 7.35316 32.6403 9.10816 32.6403 11.4332Z" fill="var(--fill-0, #00DE5A)"/>
<path id="Vector_2" d="M24 12C24 14.3733 23.2962 16.6935 21.9776 18.6668C20.6591 20.6403 18.785 22.1783 16.5922 23.0865C14.3995 23.9948 11.9867 24.2325 9.65894 23.7695C7.33117 23.3064 5.19295 22.1636 3.51473 20.4853C1.8365 18.8071 0.693606 16.6689 0.230581 14.3411C-0.232442 12.0133 0.00520214 9.60051 0.913459 7.40779C1.8217 5.21511 3.35979 3.34095 5.33317 2.02236C7.30657 0.703787 9.62663 0 12 0C15.1826 0 18.2348 1.26428 20.4852 3.51472C22.7358 5.76517 24 8.81741 24 12ZM14.508 5.82V12.798L9.60901 5.82H5.82001V18.18H9.49501V11.199L14.394 18.18H18.18V5.82H14.508Z" fill="var(--fill-0, #00DE5A)"/>
</g>
</svg>
