<svg preserveAspectRatio="none" width="100%" height="100%" overflow="visible" style="display: block;" viewBox="0 0 84 23" fill="none" xmlns="http://www.w3.org/2000/svg">
<g id="ToeedAI 1" clip-path="url(#clip0_0_191)">
<path id="Vector" fill-rule="evenodd" clip-rule="evenodd" d="M32.2453 5.02019H27.7652C27.4585 5.02019 27.1979 5.243 27.15 5.54556L25.338 17.034C25.302 17.2608 25.4776 17.4652 25.7075 17.4652H27.8464C28.1529 17.4652 28.4137 17.2423 28.4616 16.9392L28.9503 13.8405C28.9975 13.5371 29.2588 13.3146 29.5647 13.3146H30.9829C33.9343 13.3146 35.6373 11.8864 36.0824 9.05644C36.2828 7.81833 36.0909 6.84549 35.5109 6.164C34.8744 5.41611 33.7448 5.02019 32.2453 5.02019ZM32.7623 9.2162C32.5173 10.8239 31.2889 10.8239 30.1012 10.8239H29.4252L29.8995 7.82137C29.9276 7.64008 30.0848 7.50639 30.2683 7.50639H30.5781C31.3872 7.50639 32.1504 7.50639 32.5449 7.96749C32.7799 8.24276 32.852 8.65141 32.7623 9.2162ZM45.6377 9.16467H43.4923C43.3095 9.16467 43.1515 9.29836 43.1233 9.47995L43.0284 10.0799L42.8784 9.86253C42.4139 9.18831 41.3783 8.96307 40.3445 8.96307C37.9736 8.96307 35.9488 10.7587 35.5543 13.2776C35.3493 14.5339 35.6407 15.7353 36.3535 16.5732C37.0073 17.3436 37.9429 17.6647 39.0559 17.6647C40.966 17.6647 42.0256 16.4363 42.0256 16.4363L41.9297 17.0325C41.8937 17.2605 42.0692 17.4648 42.2977 17.4648H44.2304C44.5379 17.4648 44.7971 17.242 44.8456 16.9388L46.0051 9.59576C46.0417 9.36991 45.8669 9.16467 45.6377 9.16467ZM42.6471 13.3404C42.44 14.566 41.4671 15.3888 40.2267 15.3888C39.6036 15.3888 39.1055 15.1891 38.786 14.8104C38.4689 14.4345 38.3483 13.8991 38.4492 13.3031C38.6427 12.0877 39.6319 11.2383 40.8536 11.2383C41.4625 11.2383 41.958 11.4405 42.2841 11.8225C42.6109 12.2084 42.7407 12.7468 42.6471 13.3404ZM54.908 9.16436H57.064C57.366 9.16436 57.5421 9.50299 57.3705 9.75067L50.1999 20.1011C50.0839 20.2688 49.8925 20.3685 49.6881 20.3685H47.5348C47.2317 20.3685 47.0547 20.0272 47.2301 19.7788L49.4629 16.6272L47.0883 9.6582C47.0061 9.41599 47.1851 9.16436 47.4427 9.16436H49.5612C49.8364 9.16436 50.0792 9.34504 50.1587 9.60849L51.4189 13.8176L54.3927 9.43751C54.5091 9.26652 54.7024 9.16436 54.908 9.16436Z" fill="var(--fill-0, #253B80)"/>
<path id="Vector_2" fill-rule="evenodd" clip-rule="evenodd" d="M78.2835 17.0339L80.1221 5.33527C80.1503 5.15367 80.3076 5.01997 80.4904 5.01937H82.5604C82.7889 5.01937 82.9645 5.22431 82.9284 5.45107L81.1152 16.9389C81.068 17.2421 80.8072 17.4649 80.5001 17.4649H78.6515C78.4229 17.4649 78.2473 17.2607 78.2835 17.0339ZM64.202 5.01997H59.7211C59.4152 5.01997 59.1544 5.2428 59.1065 5.54535L57.2945 17.0339C57.2585 17.2607 57.434 17.4649 57.6629 17.4649H59.962C60.1757 17.4649 60.3585 17.3091 60.3919 17.0969L60.9061 13.8404C60.9533 13.5369 61.2147 13.3144 61.5205 13.3144H62.9381C65.89 13.3144 67.5928 11.8862 68.0381 9.05623C68.2392 7.81813 68.0461 6.84529 67.4664 6.16379C66.8301 5.41589 65.7015 5.01997 64.202 5.01997ZM64.7189 9.216C64.4745 10.8236 63.2461 10.8236 62.0577 10.8236H61.3824L61.8573 7.82116C61.8856 7.63987 62.0415 7.50617 62.2255 7.50617H62.5352C63.3437 7.50617 64.1077 7.50617 64.5019 7.96728C64.7371 8.24255 64.8087 8.65121 64.7189 9.216ZM77.5932 9.16445H75.4492C75.2649 9.16445 75.1084 9.29815 75.0809 9.47975L74.986 10.0797L74.8353 9.86233C74.3709 9.18811 73.3359 8.96285 72.3021 8.96285C69.9311 8.96285 67.9069 10.7585 67.5125 13.2774C67.3081 14.5337 67.5983 15.7351 68.3111 16.5731C68.9661 17.3433 69.9005 17.6644 71.0133 17.6644C72.9236 17.6644 73.9828 16.436 73.9828 16.436L73.8873 17.0324C73.8512 17.2603 74.0268 17.4647 74.2569 17.4647H76.1887C76.4945 17.4647 76.7552 17.2419 76.8031 16.9387L77.9633 9.59555C77.9988 9.36969 77.8232 9.16445 77.5932 9.16445ZM74.6028 13.3402C74.3969 14.5659 73.4229 15.3887 72.182 15.3887C71.5603 15.3887 71.0613 15.1888 70.7415 14.8101C70.4244 14.4343 70.3052 13.8989 70.4049 13.3029C70.5993 12.0875 71.5873 11.2381 72.8089 11.2381C73.4184 11.2381 73.9135 11.4403 74.2399 11.8222C74.5679 12.2082 74.6977 12.7466 74.6028 13.3402Z" fill="var(--fill-0, #179BD7)"/>
<path id="Vector_3" d="M5.31403 21.4881L5.69656 19.0587L4.84456 19.0388H0.776121L3.60349 1.1112C3.61213 1.05708 3.64076 1.00661 3.68244 0.970781C3.72413 0.934949 3.7776 0.915201 3.83319 0.915201H10.6932C12.9707 0.915201 14.5423 1.38912 15.3629 2.32451C15.7475 2.76333 15.9925 3.22188 16.1111 3.72652C16.2353 4.25603 16.2376 4.88864 16.1161 5.66023L16.1073 5.71653V6.21092L16.4921 6.42888C16.8161 6.60073 17.0735 6.79747 17.2709 7.02273C17.6001 7.39791 17.8131 7.87476 17.9029 8.44008C17.9957 9.02152 17.9651 9.71337 17.8131 10.4967C17.6375 11.3977 17.3536 12.1824 16.9705 12.8246C16.6179 13.4162 16.1688 13.9068 15.6357 14.2873C15.1267 14.6485 14.5219 14.9228 13.838 15.0984C13.1753 15.2708 12.4199 15.358 11.5913 15.358H11.0574C10.6757 15.358 10.3048 15.4955 10.0138 15.742C9.72204 15.9936 9.52877 16.3372 9.46961 16.7132L9.42941 16.9319L8.75361 21.2139L8.72288 21.3711C8.71488 21.4209 8.70099 21.4459 8.68056 21.4627C8.66225 21.4779 8.63593 21.4881 8.61024 21.4881H5.31403Z" fill="var(--fill-0, #253B80)"/>
<path id="Vector_4" d="M16.8564 5.77376C16.836 5.90467 16.8125 6.03851 16.7863 6.176C15.8815 10.8208 12.7865 12.4254 8.83341 12.4254H6.82077C6.3374 12.4254 5.93004 12.7765 5.85467 13.2533L4.82415 19.7888L4.53235 21.6412C4.48329 21.9543 4.72477 22.2365 5.04056 22.2365H8.61047C9.0332 22.2365 9.39215 21.9293 9.45868 21.5125L9.49384 21.3311L10.1661 17.0657L10.2092 16.8319C10.2749 16.4136 10.6347 16.1064 11.0574 16.1064H11.5913C15.0499 16.1064 17.7575 14.7023 18.5488 10.6387C18.8793 8.94124 18.7081 7.52389 17.8335 6.52705C17.5688 6.22645 17.2404 5.97707 16.8564 5.77376Z" fill="var(--fill-0, #179BD7)"/>
<path id="Vector_5" d="M15.9096 5.39665C15.7716 5.35643 15.6288 5.31985 15.4825 5.28695C15.3356 5.25479 15.1848 5.22625 15.0299 5.20139C14.4871 5.11363 13.8925 5.07195 13.2555 5.07195H7.87867C7.74625 5.07195 7.62057 5.10192 7.50793 5.15604C7.25993 5.27524 7.07572 5.51003 7.03109 5.79744L5.88709 13.0422L5.85425 13.2536C5.92961 12.7767 6.33699 12.4257 6.82036 12.4257H8.83299C12.7861 12.4257 15.8812 10.8204 16.7859 6.17628C16.8128 6.03879 16.8356 5.90495 16.856 5.77405C16.6271 5.65264 16.3791 5.54879 16.1121 5.46028C16.0465 5.43835 15.9785 5.41715 15.9096 5.39665Z" fill="var(--fill-0, #222D65)"/>
<path id="Vector_6" d="M7.03113 5.79736C7.07577 5.50992 7.26019 5.27516 7.50797 5.15668C7.62145 5.10255 7.74651 5.07257 7.87872 5.07257H13.2558C13.8928 5.07257 14.4873 5.11425 15.0299 5.20203C15.1851 5.22689 15.3357 5.25541 15.4827 5.28759C15.6291 5.32051 15.7716 5.35708 15.9099 5.39729C15.9785 5.41777 16.0465 5.43897 16.1131 5.4602C16.38 5.54868 16.628 5.65327 16.8568 5.77395C17.1261 4.05745 16.8548 2.88876 15.9268 1.83048C14.9036 0.665446 13.0568 0.166666 10.6939 0.166666H3.83365C3.35092 0.166666 2.93933 0.517698 2.8646 0.995278L0.00733048 19.1072C-0.0490907 19.4656 0.227331 19.7889 0.588595 19.7889H4.82397L5.88735 13.0421L7.03113 5.79736Z" fill="var(--fill-0, #253B80)"/>
</g>
<defs>
<clipPath id="clip0_0_191">
<rect width="84" height="23" fill="white"/>
</clipPath>
</defs>
</svg>
