<svg width="156" height="56" viewBox="0 0 156 56" fill="none" xmlns="http://www.w3.org/2000/svg">
<rect width="156" height="56" fill="white"/>
<path d="M94.5283 17.5938C98.7442 17.5938 102.719 21.3911 102.743 28.3604C102.743 35.9785 98.8162 39.4395 94.5039 39.4395C92.3841 39.4394 91.1075 38.5496 90.2402 37.9248L90.2158 44.7266L84.1934 46V17.9785H89.4932L89.8066 19.4688C90.6498 18.6997 92.1674 17.5938 94.5283 17.5938ZM43.1426 17.5938C45.1421 17.5938 47.1177 17.9062 49.1172 18.6992V24.3467C47.2863 23.3614 44.9734 22.8086 43.1426 22.8086C41.866 22.8086 41.0949 23.1694 41.0947 24.1064C41.0947 26.798 50.2738 25.525 50.2979 32.6865C50.2976 36.988 46.8526 39.4629 41.8418 39.4629C39.77 39.4629 37.5051 39.055 35.2646 38.0938V32.374C37.2883 33.4795 39.8423 34.2959 41.8418 34.2959C43.1909 34.2959 44.1543 33.9356 44.1543 32.8301C44.1537 29.9706 35.0004 31.0277 35 24.3955C35 20.1419 38.2522 17.5938 43.1426 17.5938ZM57.3564 18.0029H61.9336V23.1211H57.3564V31.6533C57.3568 35.2095 61.1627 34.1044 61.9336 33.792V38.6699C61.1386 39.1025 59.6931 39.4629 57.7178 39.4629C54.1523 39.4629 51.4776 36.8438 51.4775 33.2871L51.502 14.0371L57.3799 12.7881L57.3564 18.0029ZM113.03 17.5938C118.74 17.5938 121.728 22.4484 121.728 28.6006C121.728 29.1774 121.68 30.4268 121.68 30.7393H109.899C110.164 33.5749 112.236 34.3925 114.572 34.3926C116.957 34.3926 118.836 33.8874 120.475 33.0703V37.877C118.836 38.7901 116.668 39.4385 113.802 39.4385C107.924 39.4385 103.828 35.7862 103.828 28.5527C103.828 22.4488 107.297 17.594 113.03 17.5938ZM69.4258 19.7812C70.8471 17.1858 73.6666 17.7145 74.4375 18.0029V23.5303C73.6907 23.2659 71.2807 22.9298 69.8594 24.7803V39.0312H63.8369V18.0029H69.041L69.4258 19.7812ZM81.9521 39.0303H75.9053V18.0029H81.9521V39.0303ZM93.082 22.9287C91.7091 22.9288 90.8421 23.4097 90.2158 24.1064L90.2393 33.0225C90.8174 33.6473 91.6608 34.1513 93.082 34.1514C95.2984 34.1514 96.792 31.7486 96.792 28.5283C96.792 25.3801 95.2743 22.9287 93.082 22.9287ZM113.007 22.4727C111.489 22.4727 109.826 23.6018 109.826 26.3174H116.042C116.042 23.6019 114.476 22.4728 113.007 22.4727ZM81.9531 14.8789L75.9062 16.1758V11.2734L81.9531 10V14.8789Z" fill="#6461FC"/>
</svg>
