<svg preserveAspectRatio="none" width="100%" height="100%" overflow="visible" style="display: block;" viewBox="0 0 20 20" fill="none" xmlns="http://www.w3.org/2000/svg">
<g id="heart-line">
<path id="Vector" d="M10.0007 4.39675C11.7625 2.815 14.485 2.8675 16.1822 4.56775C17.8787 6.26875 17.9372 8.97775 16.3592 10.7448L9.99925 17.1138L3.64075 10.7448C2.06275 8.97775 2.122 6.26425 3.81775 4.56775C5.5165 2.86975 8.23375 2.81275 10.0007 4.39675V4.39675ZM15.1202 5.6275C13.9952 4.501 12.1802 4.45525 11.0027 5.51275L10.0015 6.41125L8.9995 5.5135C7.81825 4.4545 6.007 4.501 4.879 5.629C3.7615 6.7465 3.70525 8.53525 4.735 9.71725L10 14.9905L15.265 9.718C16.2955 8.53525 16.2392 6.74875 15.1202 5.6275V5.6275Z" fill="var(--fill-0, white)"/>
</g>
</svg>
