<svg preserveAspectRatio="none" width="100%" height="100%" overflow="visible" style="display: block;" viewBox="0 0 20.0017 20.0017" fill="none" xmlns="http://www.w3.org/2000/svg">
<g id="Feather Icons/fi:search">
<path id="Vector (Stroke)" d="M15.0852 9.16725C15.0851 5.89936 12.4351 3.25025 9.16722 3.25025C5.89942 3.25039 3.25036 5.89944 3.25023 9.16725C3.25023 12.4352 5.89933 15.0851 9.16722 15.0852C12.4352 15.0852 15.0852 12.4352 15.0852 9.16725ZM16.5852 9.16725C16.5852 13.2637 13.2636 16.5852 9.16722 16.5852C5.07091 16.5851 1.75023 13.2636 1.75023 9.16725C1.75036 5.07101 5.07099 1.75039 9.16722 1.75025C13.2636 1.75025 16.5851 5.07093 16.5852 9.16725Z" fill="var(--fill-0, #9B9DAB)"/>
<path id="Vector (Stroke)_2" d="M13.3458 13.3457C13.6387 13.0528 14.1135 13.0528 14.4064 13.3457L18.0323 16.9717C18.325 17.2646 18.3251 17.7394 18.0323 18.0322C17.7395 18.325 17.2647 18.3249 16.9718 18.0322L13.3458 14.4063C13.0529 14.1134 13.0529 13.6386 13.3458 13.3457Z" fill="var(--fill-0, #9B9DAB)"/>
</g>
</svg>
