<svg preserveAspectRatio="none" overflow="visible" style="display: block;" width="14.712" height="15.75" viewBox="0 0 14.712 15.75" fill="none" xmlns="http://www.w3.org/2000/svg">
<path id="Vector" d="M7.356 1.5C6.75926 1.5 6.18697 1.73705 5.76501 2.15901C5.34305 2.58097 5.106 3.15326 5.106 3.75V8.25C5.106 8.84674 5.34305 9.41903 5.76501 9.84099C6.18697 10.2629 6.75926 10.5 7.356 10.5C7.95274 10.5 8.52503 10.2629 8.94699 9.84099C9.36895 9.41903 9.606 8.84674 9.606 8.25V3.75C9.606 3.15326 9.36895 2.58097 8.94699 2.15901C8.52503 1.73705 7.95274 1.5 7.356 1.5ZM7.356 0C7.84846 0 8.33609 0.0969966 8.79106 0.285452C9.24603 0.473907 9.65943 0.75013 10.0077 1.09835C10.3559 1.44657 10.6321 1.85997 10.8205 2.31494C11.009 2.76991 11.106 3.25754 11.106 3.75V8.25C11.106 9.24456 10.7109 10.1984 10.0077 10.9017C9.30439 11.6049 8.35056 12 7.356 12C6.36144 12 5.40761 11.6049 4.70435 10.9017C4.00109 10.1984 3.606 9.24456 3.606 8.25V3.75C3.606 2.75544 4.00109 1.80161 4.70435 1.09835C5.40761 0.395088 6.36144 0 7.356 0V0ZM0 9.7215L1.4715 9.42675C1.74479 10.7861 2.48027 12.0089 3.55298 12.8874C4.62569 13.7659 5.96947 14.2459 7.356 14.2459C8.74254 14.2459 10.0863 13.7659 11.159 12.8874C12.2317 12.0089 12.9672 10.7861 13.2405 9.42675L14.712 9.7215C14.028 13.1588 10.9935 15.75 7.356 15.75C3.7185 15.75 0.684 13.1588 0 9.7215Z" fill="#929CA5"/>
</svg>
