<svg preserveAspectRatio="xMidYMid meet" width="100%" height="100%" overflow="visible" style="display: block;" viewBox="0 0 157.118 166.7" fill="none" xmlns="http://www.w3.org/2000/svg">
<g id="Frame 2085664201">
<path id="Vector" d="M78.5589 166C121.559 166 156.418 131.141 156.418 88.1411C156.418 45.1408 121.559 10.2822 78.5589 10.2822C35.5586 10.2822 0.7 45.1408 0.7 88.1411C0.7 131.141 35.5586 166 78.5589 166Z" stroke="var(--stroke-0, #7D8797)" stroke-opacity="0.32" stroke-width="1.4" stroke-dasharray="5 7"/>
<path id="Vector_2" d="M78.5589 139.528C106.939 139.528 129.946 116.521 129.946 88.1413C129.946 59.7611 106.939 36.7544 78.5589 36.7544C50.1787 36.7544 27.172 59.7611 27.172 88.1413C27.172 116.521 50.1787 139.528 78.5589 139.528Z" stroke="var(--stroke-0, #7D8797)" stroke-opacity="0.32" stroke-width="1.4" stroke-dasharray="5 7"/>
<path id="Vector_3" d="M78.5589 111.499C91.459 111.499 101.917 101.041 101.917 88.1414C101.917 75.2413 91.459 64.7837 78.5589 64.7837C65.6588 64.7837 55.2012 75.2413 55.2012 88.1414C55.2012 101.041 65.6588 111.499 78.5589 111.499Z" stroke="var(--stroke-0, #22D3EE)" stroke-opacity="0.6" stroke-width="1.5"/>
<g id="Group">
<g id="Vector_4" opacity="0.9" filter="url(#filter0_f_0_4)">
<path d="M78.5589 14.5645C80.9239 14.5645 82.8411 12.6473 82.8411 10.2822C82.8411 7.91722 80.9239 6 78.5589 6C76.1939 6 74.2767 7.91722 74.2767 10.2822C74.2767 12.6473 76.1939 14.5645 78.5589 14.5645Z" fill="var(--fill-0, #FBBF24)"/>
</g>
<path id="Vector_5" d="M78.5589 14.5645C80.9239 14.5645 82.8411 12.6473 82.8411 10.2822C82.8411 7.91722 80.9239 6 78.5589 6C76.1939 6 74.2767 7.91722 74.2767 10.2822C74.2767 12.6473 76.1939 14.5645 78.5589 14.5645Z" fill="var(--fill-0, #FBBF24)"/>
</g>
<g id="Group_2">
<g id="Vector_6" opacity="0.9" filter="url(#filter1_f_0_4)">
<path d="M78.5589 40.2578C80.4939 40.2578 82.0625 38.6892 82.0625 36.7541C82.0625 34.8191 80.4939 33.2505 78.5589 33.2505C76.6239 33.2505 75.0552 34.8191 75.0552 36.7541C75.0552 38.6892 76.6239 40.2578 78.5589 40.2578Z" fill="var(--fill-0, #8B5CF6)"/>
</g>
<path id="Vector_7" d="M78.5589 40.2578C80.4939 40.2578 82.0625 38.6892 82.0625 36.7541C82.0625 34.8191 80.4939 33.2505 78.5589 33.2505C76.6239 33.2505 75.0552 34.8191 75.0552 36.7541C75.0552 38.6892 76.6239 40.2578 78.5589 40.2578Z" fill="var(--fill-0, #8B5CF6)"/>
</g>
<g id="Group_3">
<path id="Vector_8" d="M78.5589 142.253C80.0639 142.253 81.2839 141.033 81.2839 139.528C81.2839 138.023 80.0639 136.803 78.5589 136.803C77.0539 136.803 75.8338 138.023 75.8338 139.528C75.8338 141.033 77.0539 142.253 78.5589 142.253Z" fill="var(--fill-0, #64748B)"/>
</g>
<path id="Vector_9" opacity="0.12" d="M78.5589 116.17C94.039 116.17 106.588 103.621 106.588 88.141C106.588 72.6609 94.039 60.1118 78.5589 60.1118C63.0788 60.1118 50.5297 72.6609 50.5297 88.141C50.5297 103.621 63.0788 116.17 78.5589 116.17Z" fill="var(--fill-0, #22D3EE)"/>
<path id="Vector_10" d="M78.5589 111.499C91.459 111.499 101.917 101.041 101.917 88.1414C101.917 75.2413 91.459 64.7837 78.5589 64.7837C65.6588 64.7837 55.2012 75.2413 55.2012 88.1414C55.2012 101.041 65.6588 111.499 78.5589 111.499Z" fill="url(#paint0_radial_0_4)"/>
<path id="Vector_11" d="M72.3302 78.7979L88.6806 88.1409L72.3302 97.484V78.7979Z" fill="var(--fill-0, #04222A)"/>
</g>
<defs>
<filter id="filter0_f_0_4" x="68.2767" y="0" width="20.5645" height="20.5645" filterUnits="userSpaceOnUse" color-interpolation-filters="sRGB">
<feFlood flood-opacity="0" result="BackgroundImageFix"/>
<feBlend mode="normal" in="SourceGraphic" in2="BackgroundImageFix" result="shape"/>
<feGaussianBlur stdDeviation="3" result="effect1_foregroundBlur_0_4"/>
</filter>
<filter id="filter1_f_0_4" x="69.0552" y="27.2505" width="19.0073" height="19.0073" filterUnits="userSpaceOnUse" color-interpolation-filters="sRGB">
<feFlood flood-opacity="0" result="BackgroundImageFix"/>
<feBlend mode="normal" in="SourceGraphic" in2="BackgroundImageFix" result="shape"/>
<feGaussianBlur stdDeviation="3" result="effect1_foregroundBlur_0_4"/>
</filter>
<radialGradient id="paint0_radial_0_4" cx="0" cy="0" r="1" gradientUnits="userSpaceOnUse" gradientTransform="translate(72.953 80.6669) scale(32.7007)">
<stop stop-color="#67E8F9"/>
<stop offset="0.42" stop-color="#22D3EE"/>
<stop offset="1" stop-color="#0891B2"/>
</radialGradient>
</defs>
</svg>
