<svg preserveAspectRatio="none" width="100%" height="100%" overflow="visible" style="display: block;" viewBox="0 0 160 160" fill="none" xmlns="http://www.w3.org/2000/svg">
<g id="error 1">
<path id="Vector" d="M80 148C117.555 148 148 117.555 148 80C148 42.4446 117.555 12 80 12C42.4446 12 12 42.4446 12 80C12 117.555 42.4446 148 80 148Z" stroke="var(--stroke-0, #F2484B)" stroke-opacity="0.3" stroke-width="2" stroke-dasharray="5 7"/>
<path id="Vector_2" d="M80 126C105.405 126 126 105.405 126 80C126 54.5949 105.405 34 80 34C54.5949 34 34 54.5949 34 80C34 105.405 54.5949 126 80 126Z" stroke="var(--stroke-0, #F2484B)" stroke-opacity="0.4" stroke-width="2" stroke-dasharray="5 7"/>
<path id="Vector_3" d="M80 104C93.2548 104 104 93.2548 104 80C104 66.7452 93.2548 56 80 56C66.7452 56 56 66.7452 56 80C56 93.2548 66.7452 104 80 104Z" stroke="var(--stroke-0, #F2484B)" stroke-opacity="0.6" stroke-width="2.5"/>
<path id="Vector_4" d="M80 66V82" stroke="var(--stroke-0, #F2484B)" stroke-width="5" stroke-linecap="round"/>
<path id="Vector_5" d="M80 95.8C81.5464 95.8 82.8 94.5464 82.8 93C82.8 91.4536 81.5464 90.2 80 90.2C78.4536 90.2 77.2 91.4536 77.2 93C77.2 94.5464 78.4536 95.8 80 95.8Z" fill="var(--fill-0, #F2484B)"/>
</g>
</svg>
