<svg preserveAspectRatio="none" width="100%" height="100%" overflow="visible" style="display: block;" viewBox="0 0 160 160" fill="none" xmlns="http://www.w3.org/2000/svg">
<g id="completed 1">
<path id="Vector" d="M80 148C117.555 148 148 117.555 148 80C148 42.4446 117.555 12 80 12C42.4446 12 12 42.4446 12 80C12 117.555 42.4446 148 80 148Z" stroke="var(--stroke-0, #22C97E)" stroke-opacity="0.3" stroke-width="2.5"/>
<path id="Vector_2" d="M80 126C105.405 126 126 105.405 126 80C126 54.5949 105.405 34 80 34C54.5949 34 34 54.5949 34 80C34 105.405 54.5949 126 80 126Z" stroke="var(--stroke-0, #22C97E)" stroke-opacity="0.5" stroke-width="2.5"/>
<path id="Vector_3" d="M80 104C93.2548 104 104 93.2548 104 80C104 66.7452 93.2548 56 80 56C66.7452 56 56 66.7452 56 80C56 93.2548 66.7452 104 80 104Z" stroke="var(--stroke-0, #22C97E)" stroke-width="2.5"/>
<path id="Vector_4" d="M68 80L76 88L94 68" stroke="var(--stroke-0, #22C97E)" stroke-width="5" stroke-linecap="round" stroke-linejoin="round"/>
</g>
</svg>
