<svg width="60" height="60" viewBox="0 0 60 60" fill="none" xmlns="http://www.w3.org/2000/svg">
<path opacity="0.55" d="M29.9231 56.8462C44.7923 56.8462 56.8462 44.7923 56.8462 29.9231C56.8462 15.0539 44.7923 3 29.9231 3C15.0539 3 3 15.0539 3 29.9231C3 44.7923 15.0539 56.8462 29.9231 56.8462Z" stroke="#06B6D4" stroke-width="2" stroke-dasharray="3 5"/>
<path d="M18.7556 39.399C17.5656 39.399 16.5296 39.182 15.6476 38.748C14.7796 38.3 14.1146 37.698 13.6526 36.942C13.1906 36.186 12.9596 35.332 12.9596 34.38H16.2776C16.2776 35.024 16.4946 35.549 16.9286 35.955C17.3626 36.347 17.9716 36.543 18.7556 36.543C19.2736 36.543 19.7146 36.445 20.0786 36.249C20.4426 36.053 20.7226 35.787 20.9186 35.451C21.1146 35.101 21.2126 34.709 21.2126 34.275C21.2126 33.603 20.9956 33.05 20.5616 32.616C20.1416 32.182 19.5396 31.965 18.7556 31.965C18.3356 31.965 17.9646 32.028 17.6426 32.154C17.3346 32.28 17.0686 32.434 16.8446 32.616L15.2906 29.991L19.9316 26.967L19.7426 26.61H13.5896V23.67H23.9216V26.862L18.5666 30.264L16.8866 29.802C17.1666 29.718 17.4606 29.655 17.7686 29.613C18.0906 29.557 18.4336 29.529 18.7976 29.529C19.9876 29.529 21.0096 29.725 21.8636 30.117C22.7176 30.509 23.3756 31.062 23.8376 31.776C24.3136 32.476 24.5516 33.295 24.5516 34.233V34.485C24.5516 35.423 24.3136 36.263 23.8376 37.005C23.3756 37.747 22.7106 38.335 21.8426 38.769C20.9886 39.189 19.9596 39.399 18.7556 39.399ZM33.5362 39.399C32.3182 39.399 31.2752 39.203 30.4072 38.811C29.5392 38.405 28.8322 37.859 28.2862 37.173C27.7542 36.487 27.3552 35.696 27.0892 34.8C26.8372 33.89 26.7112 32.931 26.7112 31.923V30.726C26.7112 29.326 26.9562 28.059 27.4462 26.925C27.9362 25.791 28.6852 24.888 29.6932 24.216C30.7012 23.544 31.9822 23.208 33.5362 23.208C35.0902 23.208 36.3642 23.544 37.3582 24.216C38.3662 24.888 39.1152 25.791 39.6052 26.925C40.0952 28.059 40.3402 29.326 40.3402 30.726V31.923C40.3402 32.931 40.2072 33.89 39.9412 34.8C39.6892 35.696 39.2902 36.487 38.7442 37.173C38.2122 37.859 37.5122 38.405 36.6442 38.811C35.7902 39.203 34.7542 39.399 33.5362 39.399ZM33.5362 36.228C34.6702 36.228 35.5102 35.836 36.0562 35.052C36.6162 34.254 36.8962 33.022 36.8962 31.356C36.8962 29.592 36.6092 28.325 36.0352 27.555C35.4752 26.771 34.6422 26.379 33.5362 26.379C32.4022 26.379 31.5552 26.771 30.9952 27.555C30.4352 28.325 30.1552 29.578 30.1552 31.314C30.1552 32.994 30.4282 34.233 30.9742 35.031C31.5342 35.829 32.3882 36.228 33.5362 36.228ZM45.1838 39.221C44.1698 39.221 43.3768 39.013 42.8048 38.597C42.2328 38.181 41.9294 37.596 41.8948 36.842H43.7408C43.7754 37.0673 43.9098 37.271 44.1438 37.453C44.3864 37.6263 44.7461 37.713 45.2228 37.713C45.5868 37.713 45.8858 37.6523 46.1198 37.531C46.3624 37.401 46.4838 37.219 46.4838 36.985C46.4838 36.777 46.3928 36.6123 46.2108 36.491C46.0288 36.361 45.7038 36.27 45.2358 36.218L44.6768 36.166C43.8188 36.0793 43.1731 35.841 42.7398 35.451C42.3151 35.061 42.1028 34.5627 42.1028 33.956C42.1028 33.4533 42.2284 33.033 42.4798 32.695C42.7311 32.357 43.0778 32.1013 43.5198 31.928C43.9704 31.7547 44.4818 31.668 45.0538 31.668C45.9724 31.668 46.7134 31.8717 47.2768 32.279C47.8401 32.6777 48.1348 33.2583 48.1608 34.021H46.3148C46.2801 33.787 46.1588 33.592 45.9508 33.436C45.7428 33.2713 45.4351 33.189 45.0278 33.189C44.7071 33.189 44.4514 33.2497 44.2608 33.371C44.0701 33.4923 43.9748 33.657 43.9748 33.865C43.9748 34.0643 44.0571 34.216 44.2218 34.32C44.3864 34.424 44.6551 34.4977 45.0278 34.541L45.5868 34.593C46.4621 34.6883 47.1424 34.931 47.6278 35.321C48.1131 35.711 48.3558 36.2353 48.3558 36.894C48.3558 37.3707 48.2258 37.7867 47.9658 38.142C47.7058 38.4887 47.3374 38.7573 46.8608 38.948C46.3841 39.13 45.8251 39.221 45.1838 39.221Z" fill="#0891A5"/>
</svg>
