<svg preserveAspectRatio="none" width="100%" height="100%" overflow="visible" style="display: block;" viewBox="0 0 16 16" fill="none" xmlns="http://www.w3.org/2000/svg">
<g id="bank-card-line">
<path id="Vector" opacity="0.5" d="M2.6 2.6H13.4C13.5591 2.6 13.7117 2.66321 13.8243 2.77574C13.9368 2.88826 14 3.04087 14 3.2V12.8C14 12.9591 13.9368 13.1117 13.8243 13.2243C13.7117 13.3368 13.5591 13.4 13.4 13.4H2.6C2.44087 13.4 2.28826 13.3368 2.17574 13.2243C2.06321 13.1117 2 12.9591 2 12.8V3.2C2 3.04087 2.06321 2.88826 2.17574 2.77574C2.28826 2.66321 2.44087 2.6 2.6 2.6V2.6ZM12.8 7.4H3.2V12.2H12.8V7.4ZM12.8 6.2V3.8H3.2V6.2H12.8ZM9.2 9.8H11.6V11H9.2V9.8Z" fill="var(--fill-0, #9B9DAB)"/>
</g>
</svg>
