<svg xmlns="http://www.w3.org/2000/svg" width="20" height="20" viewBox="0 0 20 20" fill="none">
  <path
    d="M13.402 12.9627L14.992 11.3712L12.6063 8.98473L15.2575 6.33348L13.6675 4.74273L11.0155 7.39398L8.62901 5.00748L7.03751 6.59823L13.402 12.9627ZM12.3408 14.0232L5.97701 7.65948L3.85601 9.78048L10.2198 16.1442L12.3408 14.0232ZM11.0155 5.27298L13.1365 3.15123C13.2772 3.01063 13.4679 2.93164 13.6668 2.93164C13.8656 2.93164 14.0564 3.01063 14.197 3.15123L16.849 5.80323C16.9896 5.94388 17.0686 6.13461 17.0686 6.33348C17.0686 6.53235 16.9896 6.72308 16.849 6.86373L14.7273 8.98473L16.5835 10.841C16.6532 10.9106 16.7086 10.9934 16.7463 11.0844C16.784 11.1754 16.8035 11.273 16.8035 11.3716C16.8035 11.4702 16.784 11.5678 16.7463 11.6588C16.7086 11.7499 16.6532 11.8326 16.5835 11.9022L10.75 17.7357C10.6094 17.8763 10.4186 17.9553 10.2198 17.9553C10.0209 17.9553 9.83016 17.8763 9.68951 17.7357L2.26451 10.3107C2.12391 10.1701 2.04492 9.97935 2.04492 9.78048C2.04492 9.58161 2.12391 9.39088 2.26451 9.25023L8.09801 3.41673C8.16767 3.347 8.25038 3.29168 8.34143 3.25394C8.43248 3.21619 8.53008 3.19677 8.62864 3.19677C8.7272 3.19677 8.82479 3.21619 8.91584 3.25394C9.00689 3.29168 9.08961 3.347 9.15926 3.41673L11.0155 5.27298Z"
    fill="#000"
  />
</svg>
