<svg xmlns="http://www.w3.org/2000/svg" width="16" height="16" viewBox="0 0 16 16" fill="none">
  <path d="M5 5V2.6C5 2.44087 5.06321 2.28826 5.17574 2.17574C5.28826 2.06321 5.44087 2 5.6 2H13.4C13.5591 2 13.7117 2.06321 13.8243 2.17574C13.9368 2.28826 14 2.44087 14 2.6V10.4C14 10.5591 13.9368 10.7117 13.8243 10.8243C13.7117 10.9368 13.5591 11 13.4 11H11V13.3958C11 13.7294 10.7306 14 10.3958 14H2.6042C2.52483 14.0001 2.44623 13.9845 2.37289 13.9542C2.29955 13.9238 2.23291 13.8793 2.17679 13.8232C2.12067 13.7671 2.07617 13.7005 2.04583 13.6271C2.0155 13.5538 1.99992 13.4752 2 13.3958L2.0018 5.6042C2.0018 5.2706 2.2712 5 2.606 5H5ZM6.2 5H10.3958C10.7294 5 11 5.2694 11 5.6042V9.8H12.8V3.2H6.2V5ZM3.2018 6.2L3.2 12.8H9.8V6.2H3.2018Z" fill="currentColor"/>
</svg>