<svg width="16" height="16" viewBox="0 0 16 16" fill="none" xmlns="http://www.w3.org/2000/svg">
<g clip-path="url(#clip0_343_6884)">
<path d="M8.01855 0C10.14 6.46491e-05 12.1746 0.842769 13.6748 2.34277C15.1751 3.84306 16.0186 5.87827 16.0186 8C16.0186 10.1217 15.1751 12.1569 13.6748 13.6572C12.1746 15.1572 10.14 15.9999 8.01855 16C5.89688 16 3.86161 15.1574 2.36133 13.6572C0.861037 12.1569 0.0185547 10.1217 0.0185547 8C0.0185547 5.87827 0.861037 3.84306 2.36133 2.34277C3.86161 0.842559 5.89688 0 8.01855 0ZM4.01855 4C3.46855 4 3.01855 4.45 3.01855 5V11C3.01855 11.55 3.46855 12 4.01855 12H12.0186C12.5684 11.9999 13.0186 11.5499 13.0186 11V5C13.0186 4.45008 12.5684 4.00013 12.0186 4H4.01855ZM12.0186 6L8.01855 8.5L4.01855 6V5L8.01855 7.5L12.0186 5V6Z" fill="#808080"/>
</g>
<defs>
<clipPath id="clip0_343_6884">
<rect width="16" height="16" fill="white"/>
</clipPath>
</defs>
</svg>
