<svg viewBox="0 0 16 16" fill="none" xmlns="http://www.w3.org/2000/svg">
  <path d="M15.04 8.18C15.04 7.64 14.99 7.12 14.9 6.64H8.16V9.48H11.94C11.76 10.44 11.21 11.24 10.41 11.76V13.64H12.78C14.24 12.3 15.04 10.42 15.04 8.18Z" fill="#4285F4"/>
  <path d="M8.16 15.5C10.08 15.5 11.7 14.88 12.78 13.64L10.41 11.76C9.78 12.18 8.96 12.44 8.16 12.44C6.22 12.44 4.56 11.12 3.98 9.34H1.54V11.28C2.6 13.64 5.18 15.5 8.16 15.5Z" fill="#34A853"/>
  <path d="M3.98 9.34C3.84 8.92 3.76 8.48 3.76 8C3.76 7.52 3.84 7.08 3.98 6.66V4.72H1.54C1.1 5.58 0.84 6.56 0.84 8C0.84 9.44 1.1 10.42 1.54 11.28L3.98 9.34Z" fill="#FBBC05"/>
  <path d="M8.16 3.56C9.06 3.56 9.86 3.88 10.5 4.5L12.52 2.48C11.68 1.7 10.48 1.2 8.16 1.2C5.18 1.2 2.6 3.06 1.54 5.42L3.98 7.36C4.56 5.58 6.22 4.26 8.16 3.56Z" fill="#EA4335"/>
</svg>
