<svg width="20" height="20" viewBox="0 0 20 20" fill="none" xmlns="http://www.w3.org/2000/svg">
<path d="M16.75 12.25V14.5H19V16H16.75V18.25H15.25V16H13V14.5H15.25V12.25H16.75ZM16.756 3.25C17.167 3.25 17.5 3.58375 17.5 3.99475V10.75H16V4.75H4V15.2493L11.5 7.75L13.75 10V12.1217L11.5 9.87175L6.12025 15.25H11.5V16.75H3.244C3.04661 16.7498 2.85737 16.6712 2.71787 16.5316C2.57836 16.392 2.5 16.2026 2.5 16.0052V3.99475C2.50137 3.79778 2.58018 3.60926 2.71938 3.46991C2.85859 3.33056 3.04704 3.25157 3.244 3.25H16.756ZM7 6.25C7.39782 6.25 7.77936 6.40804 8.06066 6.68934C8.34196 6.97064 8.5 7.35218 8.5 7.75C8.5 8.14782 8.34196 8.52936 8.06066 8.81066C7.77936 9.09196 7.39782 9.25 7 9.25C6.60218 9.25 6.22064 9.09196 5.93934 8.81066C5.65804 8.52936 5.5 8.14782 5.5 7.75C5.5 7.35218 5.65804 6.97064 5.93934 6.68934C6.22064 6.40804 6.60218 6.25 7 6.25Z" fill="#EBF4FB"/>
</svg>
