<svg preserveAspectRatio="none" width="100%" height="100%" overflow="visible" style="display: block;" viewBox="0 0 43.4115 40.8353" fill="none" xmlns="http://www.w3.org/2000/svg">
<path id="Vector" d="M18.6363 18.8376L37.4739 0L40.8675 3.3936L37.4739 6.7896L43.4115 12.7272L40.0179 16.1232L34.0779 10.1832L30.6843 13.5768L35.7747 18.6672L32.3811 22.0632L27.2907 16.9704L22.0299 22.2312C23.663 24.7128 24.3179 27.7118 23.8681 30.6483C23.4183 33.5848 21.8956 36.2502 19.5945 38.1291C17.2935 40.0081 14.3774 40.9671 11.4103 40.8207C8.44317 40.6744 5.63568 39.4331 3.53069 37.3368C1.42115 35.2352 0.168351 32.4243 0.0157744 29.4505C-0.136802 26.4766 0.821744 23.5523 2.70511 21.2458C4.58848 18.9393 7.26213 17.4155 10.2064 16.9704C13.1507 16.5253 16.1553 17.1908 18.6363 18.8376V18.8376ZM17.1075 33.9408C17.8066 33.2795 18.3661 32.4847 18.7529 31.6035C19.1396 30.7222 19.3458 29.7724 19.3592 28.8101C19.3725 27.8479 19.1929 26.8927 18.8308 26.001C18.4687 25.1094 17.9315 24.2994 17.251 23.6189C16.5705 22.9384 15.7605 22.4012 14.8689 22.0391C13.9772 21.677 13.022 21.4973 12.0597 21.5107C11.0975 21.5241 10.1476 21.7303 9.2664 22.117C8.38516 22.5038 7.5904 23.0632 6.92909 23.7624C5.61755 25.1203 4.89183 26.9391 4.90823 28.8269C4.92464 30.7147 5.68185 32.5206 7.01679 33.8555C8.35173 35.1904 10.1576 35.9476 12.0454 35.964C13.9332 35.9805 15.7519 35.2547 17.1099 33.9432L17.1075 33.9408Z" fill="#000"/>
</svg>
