<svg width="16" height="16" viewBox="0 0 16 16" fill="none" xmlns="http://www.w3.org/2000/svg">
<path d="M8.01855 0C12.4265 0.000183474 15.9998 3.5735 16 7.98145V8.01855C15.9998 12.4265 12.4265 15.9998 8.01855 16H7.98145C3.5735 15.9998 0.000182447 12.4265 0 8.01855V7.98145C0.000182443 3.5735 3.5735 0.00018322 7.98145 0H8.01855ZM3.6709 12.4385H5.56543V6.44043H3.6709V12.4385ZM10.2158 6.36035C9.82765 6.36041 9.47831 6.43604 9.16797 6.58789C8.8576 6.73979 8.61095 6.94684 8.42773 7.20801V6.42383H6.61719V12.333H8.42773V9.12402C8.42776 8.72894 8.52991 8.42171 8.73438 8.20312C8.93882 7.98405 9.21459 7.8751 9.55957 7.875C9.90477 7.875 10.1812 7.98451 10.3857 8.20312C10.5902 8.42171 10.6924 8.72895 10.6924 9.12402V12.333H12.4922V8.88086C12.4922 8.09726 12.286 7.48164 11.873 7.0332C11.4606 6.58476 10.9073 6.36035 10.2158 6.36035ZM4.62402 3.56152C4.29176 3.56154 4.02026 3.65986 3.80957 3.85547C3.59952 4.05164 3.49414 4.30472 3.49414 4.59277C3.49417 4.88072 3.59907 5.1228 3.80957 5.31836C4.02025 5.51397 4.29904 5.61228 4.62402 5.6123C4.94899 5.6123 5.21607 5.51391 5.42676 5.31836C5.63687 5.12276 5.74215 4.88812 5.74219 4.59277C5.74219 4.29736 5.63747 4.0511 5.42676 3.85547C5.21665 3.65998 4.95621 3.56152 4.62402 3.56152Z" fill="#808080"/>
</svg>
