<svg width="16" height="16" viewBox="0 0 16 16" fill="none" xmlns="http://www.w3.org/2000/svg">
<g clip-path="url(#clip0_592_9951)">
<path d="M8 0C12.4181 0 16 3.58187 16 8C16 12.4181 12.4181 16 8 16H1.15918C0.731698 16 0.516893 15.4832 0.819336 15.1807L2.34277 13.6572C0.895273 12.2097 0 10.2094 0 8C0 3.58187 3.58187 0 8 0ZM10.9248 2.12988C10.2812 2.13001 9.74412 2.58657 9.61914 3.19336C8.5413 3.3091 7.69944 4.22323 7.69922 5.33105V5.33789C6.52691 5.38729 5.45636 5.72129 4.60645 6.24805C4.29093 6.00378 3.89465 5.85849 3.46484 5.8584C2.43297 5.8584 1.59668 6.69469 1.59668 7.72656C1.5967 8.4752 2.03638 9.11981 2.67188 9.41797C2.73375 11.5867 5.09703 13.3311 8.00391 13.3311C10.9106 13.331 13.2769 11.5855 13.3359 9.41504C13.9664 9.11509 14.4022 8.47172 14.4023 7.72754C14.4023 6.69566 13.5661 5.85938 12.5342 5.85938C12.1062 5.85943 11.7114 6.00364 11.3965 6.24609C10.539 5.71555 9.45673 5.38129 8.27246 5.33691V5.33203C8.27251 4.53832 8.86296 3.87961 9.62793 3.77148V3.77051C9.76678 4.35839 10.2944 4.79676 10.9248 4.79688C11.6611 4.79688 12.2578 4.19914 12.2578 3.46289C12.2576 2.72686 11.6609 2.12988 10.9248 2.12988ZM8.00391 10.3896C8.65307 10.3897 9.27414 10.4214 9.84961 10.4795C9.94768 10.4895 10.0107 10.5914 9.97266 10.6826C9.65079 11.452 8.89074 11.9931 8.00391 11.9932C7.11703 11.9932 6.35766 11.452 6.03516 10.6826C5.99714 10.5915 6.05931 10.4897 6.15723 10.4795C6.73223 10.4214 7.35453 10.3896 8.00391 10.3896ZM5.53613 7.71484C6.05901 7.71516 6.45893 8.26414 6.42773 8.94141C6.39649 9.6187 6.00593 9.86508 5.48242 9.86523C4.95867 9.86523 4.5 9.58961 4.53125 8.91211C4.56251 8.23462 5.01301 7.71484 5.53613 7.71484ZM10.4727 7.71484C10.9964 7.71491 11.4459 8.23467 11.4766 8.91211C11.5078 9.58959 11.0495 9.86522 10.5264 9.86523C10.0032 9.86523 9.6123 9.61953 9.58105 8.94141C9.54984 8.26394 9.94893 7.71484 10.4727 7.71484Z" fill="#808080"/>
</g>
<defs>
<clipPath id="clip0_592_9951">
<rect width="16" height="16" fill="white"/>
</clipPath>
</defs>
</svg>
