<svg xmlns="http://www.w3.org/2000/svg" width="16" height="16" viewBox="0 0 16 16" fill="none">
  <path d="M8.49364 2.62176L13.9236 12.1353C13.9737 12.2229 14 12.3224 14 12.4236C14 12.5248 13.9737 12.6242 13.9236 12.7119C13.8736 12.7995 13.8017 12.8723 13.715 12.9229C13.6283 12.9735 13.5301 13.0002 13.43 13.0002H2.57C2.46995 13.0002 2.37165 12.9735 2.285 12.9229C2.19835 12.8723 2.12639 12.7995 2.07636 12.7119C2.02634 12.6242 2 12.5248 2 12.4236C2 12.3224 2.02634 12.2229 2.07637 12.1353L7.50636 2.62176C7.5564 2.53412 7.62835 2.46134 7.715 2.41074C7.80165 2.36013 7.89995 2.3335 8 2.3335C8.10005 2.3335 8.19835 2.36013 8.285 2.41074C8.37165 2.46134 8.4436 2.53412 8.49364 2.62176ZM7.42998 10.1173V11.2704H8.57002V10.1173H7.42998ZM7.42998 6.08123V8.96412H8.57002V6.08123H7.42998Z" fill="#F27B2C"/>
</svg>
