<svg width="16" height="16" viewBox="0 0 16 16" fill="none" xmlns="http://www.w3.org/2000/svg">
<g clip-path="url(#clip0_343_6871)">
<path d="M8.01562 2.36328C8.01562 2.36328 13.0155 2.36386 14.2666 2.7002C14.6063 2.79281 14.9158 2.97291 15.1641 3.22266C15.4123 3.4725 15.5912 3.78363 15.6816 4.12402C16.0157 5.37907 16.0156 7.99381 16.0156 8C16.0156 8 16.0161 10.6194 15.6816 11.876C15.5912 12.2164 15.4123 12.5275 15.1641 12.7773C14.9158 13.0271 14.6063 13.2072 14.2666 13.2998C13.0155 13.6361 8.01562 13.6367 8.01562 13.6367C7.97552 13.6367 3.0105 13.6348 1.76465 13.2998C1.42498 13.2071 1.11535 13.0271 0.867188 12.7773C0.618974 12.5275 0.441036 12.2163 0.350586 11.876C0.016128 10.6195 0.015625 8 0.015625 8C0.0156255 7.99382 0.0165177 5.37902 0.350586 4.12402C0.441037 3.78366 0.618969 3.47249 0.867188 3.22266C1.11535 2.9729 1.42498 2.79286 1.76465 2.7002C3.0105 2.36519 7.97552 2.36329 8.01562 2.36328ZM6.37988 10.3789L10.5615 8L6.37988 5.62109V10.3789Z" fill="#808080"/>
</g>
<defs>
<clipPath id="clip0_343_6871">
<rect width="16" height="16" fill="white"/>
</clipPath>
</defs>
</svg>
